<svg width="38" height="38" viewBox="0 0 38 38" fill="none" xmlns="http://www.w3.org/2000/svg">
<g opacity="0.3">
<path d="M9.5 14.2501V3.16675H28.5V14.2501" stroke="black" stroke-width="3" stroke-linecap="round" stroke-linejoin="round"/>
<path d="M9.50033 28.5H6.33366C5.49381 28.5 4.68835 28.1664 4.09449 27.5725C3.50062 26.9786 3.16699 26.1732 3.16699 25.3333V17.4167C3.16699 16.5768 3.50062 15.7714 4.09449 15.1775C4.68835 14.5836 5.49381 14.25 6.33366 14.25H31.667C32.5068 14.25 33.3123 14.5836 33.9062 15.1775C34.5 15.7714 34.8337 16.5768 34.8337 17.4167V25.3333C34.8337 26.1732 34.5 26.9786 33.9062 27.5725C33.3123 28.1664 32.5068 28.5 31.667 28.5H28.5003" stroke="black" stroke-width="3" stroke-linecap="round" stroke-linejoin="round"/>
<path d="M28.5 22.1667H9.5V34.8334H28.5V22.1667Z" stroke="black" stroke-width="3" stroke-linecap="round" stroke-linejoin="round"/>
</g>
</svg>
