<svg width="37" height="38" viewBox="0 0 37 38" fill="none" xmlns="http://www.w3.org/2000/svg">
<g opacity="0.3">
<path d="M27.75 12.6667C30.3043 12.6667 32.375 10.5401 32.375 7.91675C32.375 5.2934 30.3043 3.16675 27.75 3.16675C25.1957 3.16675 23.125 5.2934 23.125 7.91675C23.125 10.5401 25.1957 12.6667 27.75 12.6667Z" stroke="black" stroke-width="3" stroke-linecap="round" stroke-linejoin="round"/>
<path d="M9.25 23.75C11.8043 23.75 13.875 21.6234 13.875 19C13.875 16.3766 11.8043 14.25 9.25 14.25C6.69568 14.25 4.625 16.3766 4.625 19C4.625 21.6234 6.69568 23.75 9.25 23.75Z" stroke="black" stroke-width="3" stroke-linecap="round" stroke-linejoin="round"/>
<path d="M27.75 34.8333C30.3043 34.8333 32.375 32.7066 32.375 30.0833C32.375 27.4599 30.3043 25.3333 27.75 25.3333C25.1957 25.3333 23.125 27.4599 23.125 30.0833C23.125 32.7066 25.1957 34.8333 27.75 34.8333Z" stroke="black" stroke-width="3" stroke-linecap="round" stroke-linejoin="round"/>
<path d="M13.2422 21.3909L23.7718 27.6925" stroke="black" stroke-width="3" stroke-linecap="round" stroke-linejoin="round"/>
<path d="M23.7564 10.3076L13.2422 16.6093" stroke="black" stroke-width="3" stroke-linecap="round" stroke-linejoin="round"/>
</g>
</svg>
