<svg width="46" height="46" viewBox="0 0 46 46" fill="none" xmlns="http://www.w3.org/2000/svg">
<rect width="46" height="46" rx="23" fill="white"/>
<path d="M11.3488 22.0166C11.3488 22.0166 21.0789 16.9676 24.4534 15.1898C25.747 14.4787 30.134 12.203 30.134 12.203C30.134 12.203 32.1588 11.2075 31.99 13.6253C31.9337 14.6209 31.4838 18.1054 31.0339 21.8743C30.3589 27.2078 29.6278 33.039 29.6278 33.039C29.6278 33.039 29.5153 34.6746 28.5592 34.959C27.6031 35.2435 26.0282 33.9635 25.747 33.679C25.522 33.4657 21.5288 30.2656 20.0665 28.7011C19.6727 28.2745 19.2228 27.4212 20.1227 26.4256C22.1475 24.0788 24.5659 21.1633 26.0282 19.3143C26.7032 18.4609 27.378 16.4698 24.5659 18.8876C20.5727 22.3721 16.6356 25.6433 16.6356 25.6433C16.6356 25.6433 15.7357 26.3544 14.0485 25.7144C12.3611 25.0745 10.3926 24.2211 10.3926 24.2211C10.3926 24.2211 9.04283 23.1544 11.3488 22.0166Z" fill="black"/>
</svg>
