<svg width="46" height="46" viewBox="0 0 46 46" fill="none" xmlns="http://www.w3.org/2000/svg">
<rect width="46" height="46" rx="23" fill="white"/>
<path fill-rule="evenodd" clip-rule="evenodd" d="M35.4217 18.054C35.6161 17.4464 35.4217 17 34.4965 17H31.4372C30.6593 17 30.3007 17.3857 30.1062 17.8109C30.1062 17.8109 28.5504 21.3651 26.3464 23.6738C25.6334 24.342 25.3092 24.5547 24.9203 24.5547C24.7258 24.5547 24.4443 24.342 24.4443 23.7345V18.054C24.4443 17.3249 24.2186 17 23.5703 17H18.7627C18.2766 17 17.9842 17.3384 17.9842 17.6591C17.9842 18.3502 19.0862 18.5096 19.1997 20.4538V24.6762C19.1997 25.602 19.0214 25.7698 18.6324 25.7698C17.5953 25.7698 15.0724 22.1998 13.5762 18.1147C13.2829 17.3207 12.9888 17 12.2069 17H9.14756C8.27346 17 8.09863 17.3857 8.09863 17.8109C8.09863 18.5704 9.13582 22.3372 12.928 27.319C15.456 30.7213 19.0179 32.5655 22.2591 32.5655C24.2038 32.5655 24.4444 32.1559 24.4444 31.4503V28.8789C24.4444 28.0597 24.6286 27.8962 25.2444 27.8962C25.6982 27.8962 26.476 28.1088 28.2911 29.7492C30.3655 31.6933 30.7074 32.5655 31.8742 32.5655H34.9336C35.8077 32.5655 36.2447 32.1559 35.9926 31.3475C35.7167 30.5419 34.7263 29.373 33.4122 27.9873C32.6991 27.1975 31.6295 26.347 31.3054 25.9216C30.8516 25.3749 30.9813 25.1318 31.3054 24.6458C31.3054 24.6458 35.0328 19.7247 35.4217 18.054Z" fill="black"/>
</svg>
