<svg width="46" height="46" viewBox="0 0 46 46" fill="none" xmlns="http://www.w3.org/2000/svg">
<rect width="46" height="46" rx="23" fill="white"/>
<path d="M10 36L11.8669 29.07C10.3613 26.3704 9.88294 23.2202 10.5197 20.1975C11.1564 17.1748 12.8654 14.4823 15.3332 12.6141C17.801 10.7459 20.8621 9.82726 23.9546 10.0268C27.0471 10.2264 29.9637 11.5308 32.1691 13.7006C34.3746 15.8704 35.721 18.7601 35.9612 21.8394C36.2015 24.9187 35.3195 27.9811 33.4771 30.4647C31.6347 32.9482 28.9555 34.6862 25.9311 35.3598C22.9067 36.0335 19.74 35.5975 17.0121 34.132L10 36Z" fill="black"/>
<path fill-rule="evenodd" clip-rule="evenodd" d="M27.8753 24.6667C27.621 24.4623 27.3234 24.3185 27.0049 24.2461C26.6865 24.1738 26.3557 24.1748 26.0377 24.2491C25.5599 24.4469 25.2512 25.1941 24.9425 25.5677C24.8774 25.6573 24.7818 25.7201 24.6735 25.7444C24.5653 25.7687 24.4518 25.7527 24.3545 25.6996C22.6054 25.0168 21.1393 23.7647 20.1943 22.1467C20.1137 22.0457 20.0756 21.9175 20.0879 21.7891C20.1002 21.6606 20.1621 21.542 20.2605 21.4581C20.6048 21.1184 20.8576 20.6976 20.9955 20.2347C21.0261 19.7241 20.9087 19.2155 20.6574 18.7696C20.463 18.1444 20.0932 17.5877 19.5916 17.1653C19.3329 17.0493 19.046 17.0104 18.7656 17.0533C18.4852 17.0962 18.2232 17.2191 18.0113 17.407C17.6434 17.7234 17.3514 18.118 17.1568 18.5617C16.9621 19.0054 16.8699 19.487 16.8867 19.971C16.8879 20.2428 16.9224 20.5134 16.9896 20.7768C17.1603 21.4097 17.4228 22.0143 17.7687 22.5716C18.0184 22.9985 18.2907 23.4117 18.5846 23.8096C19.5398 25.1165 20.7405 26.2261 22.1201 27.0768C22.8123 27.5091 23.5522 27.8606 24.3251 28.1244C25.128 28.4871 26.0144 28.6263 26.8903 28.5273C27.3894 28.452 27.8622 28.2556 28.2672 27.9554C28.6722 27.6552 28.997 27.2604 29.213 26.8058C29.3399 26.5311 29.3784 26.224 29.3232 25.9267C29.1909 25.3187 28.3751 24.9597 27.8753 24.6667Z" fill="white"/>
</svg>
